<svg width="1054" height="1054" viewBox="0 0 1054 1054" fill="none" xmlns="http://www.w3.org/2000/svg">
<path d="M0.60014 6.00132C0.60014 3.0183 3.01836 0.60014 6.0014 0.60014H157.48C186.979 0.60014 210.893 24.5137 210.893 54.0126V1048C210.893 1050.98 208.474 1053.4 205.491 1053.4H6.0014C3.01836 1053.4 0.60014 1050.98 0.60014 1048V6.00132Z" fill="white" stroke="white" stroke-width="1.20028"/>
<path d="M409.866 378.856C409.866 375.541 412.552 372.855 415.867 372.855H638.133C641.447 372.855 644.134 375.541 644.134 378.856V981.983C644.134 1021.76 611.891 1054 572.118 1054H415.867C412.552 1054 409.866 1051.31 409.866 1048V378.856Z" fill="white"/>
<path d="M413.877 88.0014C413.877 85.0184 416.295 82.6001 419.278 82.6001H635.037C638.02 82.6001 640.438 85.0184 640.438 88.0014V253.96C640.438 283.459 616.524 307.372 587.026 307.372H467.289C437.79 307.372 413.877 283.459 413.877 253.96V88.0014Z" fill="white" stroke="white" stroke-width="1.20028"/>
<path d="M843.107 54.0126C843.107 24.5138 867.021 0.60014 896.52 0.60014H1048C1050.98 0.60014 1053.4 3.01837 1053.4 6.0014V1048C1053.4 1050.98 1050.98 1053.4 1048 1053.4H848.509C845.526 1053.4 843.107 1050.98 843.107 1048V54.0126Z" fill="white" stroke="white" stroke-width="1.20028"/>
</svg>
